<mxfile host="app.diagrams.net" modified="2024-01-15T11:05:00.000Z" agent="5.0" etag="example" version="22.0.0">
  <diagram name="VKİ Hesaplama" id="flowchart">
    <mxGraphModel dx="1422" dy="1200" grid="1" gridSize="10" guides="1" tooltips="1" connect="1" arrows="1" fold="1" page="1" pageScale="1" pageWidth="827" pageHeight="1169" math="0" shadow="0">
      <root>
        <mxCell id="0"/>
        <mxCell id="1" parent="0"/>
        
        <!-- BAŞLA -->
        <mxCell id="start" value="BAŞLA" style="ellipse;whiteSpace=wrap;html=1;fillColor=#d5e8d4;strokeColor=#82b366;" vertex="1" parent="1">
          <mxGeometry x="360" y="40" width="120" height="60" as="geometry"/>
        </mxCell>
        
        <!-- Kilo ve boy al -->
        <mxCell id="input" value="kilo, boy al" style="shape=parallelogram;perimeter=parallelogramPerimeter;whiteSpace=wrap;html=1;fixedSize=1;fillColor=#dae8fc;strokeColor=#6c8ebf;" vertex="1" parent="1">
          <mxGeometry x="340" y="140" width="160" height="60" as="geometry"/>
        </mxCell>
        
        <!-- Geçerlilik kontrolü -->
        <mxCell id="check_positive" value="kilo > 0 VE boy > 0 ?" style="rhombus;whiteSpace=wrap;html=1;fillColor=#e1d5e7;strokeColor=#9673a6;" vertex="1" parent="1">
          <mxGeometry x="320" y="240" width="200" height="80" as="geometry"/>
        </mxCell>
        
        <!-- Hata mesajı -->
        <mxCell id="error" value="&quot;HATA&quot;" style="shape=parallelogram;perimeter=parallelogramPerimeter;whiteSpace=wrap;html=1;fixedSize=1;fillColor=#f8cecc;strokeColor=#b85450;" vertex="1" parent="1">
          <mxGeometry x="600" y="250" width="120" height="60" as="geometry"/>
        </mxCell>
        
        <!-- VKİ hesaplama -->
        <mxCell id="calculate_bmi" value="boyMetre ← boy / 100&#xa;vki ← kilo / (boyMetre²)" style="rounded=0;whiteSpace=wrap;html=1;fillColor=#fff2cc;strokeColor=#d6b656;" vertex="1" parent="1">
          <mxGeometry x="300" y="380" width="240" height="80" as="geometry"/>
        </mxCell>
        
        <!-- VKİ < 18.5 -->
        <mxCell id="check_underweight" value="vki < 18.5 ?" style="rhombus;whiteSpace=wrap;html=1;fillColor=#e1d5e7;strokeColor=#9673a6;" vertex="1" parent="1">
          <mxGeometry x="340" y="500" width="160" height="80" as="geometry"/>
        </mxCell>
        
        <!-- Zayıf -->
        <mxCell id="underweight" value="🔵 Zayıf&#xa;Kilo almanız önerilir" style="rounded=0;whiteSpace=wrap;html=1;fillColor=#dae8fc;strokeColor=#6c8ebf;" vertex="1" parent="1">
          <mxGeometry x="120" y="610" width="160" height="60" as="geometry"/>
        </mxCell>
        
        <!-- VKİ < 25 -->
        <mxCell id="check_normal" value="vki < 25 ?" style="rhombus;whiteSpace=wrap;html=1;fillColor=#e1d5e7;strokeColor=#9673a6;" vertex="1" parent="1">
          <mxGeometry x="340" y="610" width="160" height="80" as="geometry"/>
        </mxCell>
        
        <!-- Normal -->
        <mxCell id="normal" value="🟢 Normal&#xa;İdeal kiloda değiniz" style="rounded=0;whiteSpace=wrap;html=1;fillColor=#d5e8d4;strokeColor=#82b366;" vertex="1" parent="1">
          <mxGeometry x="560" y="610" width="160" height="60" as="geometry"/>
        </mxCell>
        
        <!-- VKİ < 30 -->
        <mxCell id="check_overweight" value="vki < 30 ?" style="rhombus;whiteSpace=wrap;html=1;fillColor=#e1d5e7;strokeColor=#9673a6;" vertex="1" parent="1">
          <mxGeometry x="340" y="720" width="160" height="80" as="geometry"/>
        </mxCell>
        
        <!-- Kilolu -->
        <mxCell id="overweight" value="🟡 Kilolu&#xa;Kilo vermeniz önerilir" style="rounded=0;whiteSpace=wrap;html=1;fillColor=#fff2cc;strokeColor=#d6b656;" vertex="1" parent="1">
          <mxGeometry x="560" y="720" width="160" height="60" as="geometry"/>
        </mxCell>
        
        <!-- Obez -->
        <mxCell id="obese" value="🔴 Obez&#xa;Doktora başvurun" style="rounded=0;whiteSpace=wrap;html=1;fillColor=#f8cecc;strokeColor=#b85450;" vertex="1" parent="1">
          <mxGeometry x="340" y="830" width="160" height="60" as="geometry"/>
        </mxCell>
        
        <!-- Sonuçları göster -->
        <mxCell id="output" value="VKİ sonuçlarını göster" style="shape=parallelogram;perimeter=parallelogramPerimeter;whiteSpace=wrap;html=1;fixedSize=1;fillColor=#ffe6cc;strokeColor=#d79b00;" vertex="1" parent="1">
          <mxGeometry x="320" y="950" width="200" height="60" as="geometry"/>
        </mxCell>
        
        <!-- BITIR -->
        <mxCell id="end" value="BITIR" style="ellipse;whiteSpace=wrap;html=1;fillColor=#f8cecc;strokeColor=#b85450;" vertex="1" parent="1">
          <mxGeometry x="360" y="1050" width="120" height="60" as="geometry"/>
        </mxCell>
        
        <!-- Connections -->
        <mxCell id="edge1" edge="1" parent="1" source="start" target="input">
          <mxGeometry relative="1" as="geometry"/>
        </mxCell>
        <mxCell id="edge2" edge="1" parent="1" source="input" target="check_positive">
          <mxGeometry relative="1" as="geometry"/>
        </mxCell>
        <mxCell id="edge3" edge="1" parent="1" source="check_positive" target="error">
          <mxGeometry relative="1" as="geometry"/>
          <mxCell id="labelNo1" value="HAYIR" style="edgeLabel;html=1;align=center;verticalAlign=middle;" vertex="1" connectable="0" parent="edge3">
            <mxGeometry relative="1" as="geometry"/>
          </mxCell>
        </mxCell>
        <mxCell id="edge4" edge="1" parent="1" source="check_positive" target="calculate_bmi">
          <mxGeometry relative="1" as="geometry"/>
          <mxCell id="labelYes1" value="EVET" style="edgeLabel;html=1;align=center;verticalAlign=middle;" vertex="1" connectable="0" parent="edge4">
            <mxGeometry relative="1" as="geometry"/>
          </mxCell>
        </mxCell>
        <mxCell id="edge5" edge="1" parent="1" source="calculate_bmi" target="check_underweight">
          <mxGeometry relative="1" as="geometry"/>
        </mxCell>
        
        <!-- BMI category cascade -->
        <mxCell id="edge6" edge="1" parent="1" source="check_underweight" target="underweight">
          <mxGeometry relative="1" as="geometry"/>
          <mxCell id="labelYes2" value="EVET" style="edgeLabel;html=1;align=center;verticalAlign=middle;" vertex="1" connectable="0" parent="edge6">
            <mxGeometry relative="1" as="geometry"/>
          </mxCell>
        </mxCell>
        <mxCell id="edge7" edge="1" parent="1" source="check_underweight" target="check_normal">
          <mxGeometry relative="1" as="geometry"/>
          <mxCell id="labelNo2" value="HAYIR" style="edgeLabel;html=1;align=center;verticalAlign=middle;" vertex="1" connectable="0" parent="edge7">
            <mxGeometry relative="1" as="geometry"/>
          </mxCell>
        </mxCell>
        <mxCell id="edge8" edge="1" parent="1" source="check_normal" target="normal">
          <mxGeometry relative="1" as="geometry"/>
          <mxCell id="labelYes3" value="EVET" style="edgeLabel;html=1;align=center;verticalAlign=middle;" vertex="1" connectable="0" parent="edge8">
            <mxGeometry relative="1" as="geometry"/>
          </mxCell>
        </mxCell>
        <mxCell id="edge9" edge="1" parent="1" source="check_normal" target="check_overweight">
          <mxGeometry relative="1" as="geometry"/>
          <mxCell id="labelNo3" value="HAYIR" style="edgeLabel;html=1;align=center;verticalAlign=middle;" vertex="1" connectable="0" parent="edge9">
            <mxGeometry relative="1" as="geometry"/>
          </mxCell>
        </mxCell>
        <mxCell id="edge10" edge="1" parent="1" source="check_overweight" target="overweight">
          <mxGeometry relative="1" as="geometry"/>
          <mxCell id="labelYes4" value="EVET" style="edgeLabel;html=1;align=center;verticalAlign=middle;" vertex="1" connectable="0" parent="edge10">
            <mxGeometry relative="1" as="geometry"/>
          </mxCell>
        </mxCell>
        <mxCell id="edge11" edge="1" parent="1" source="check_overweight" target="obese">
          <mxGeometry relative="1" as="geometry"/>
          <mxCell id="labelNo4" value="HAYIR" style="edgeLabel;html=1;align=center;verticalAlign=middle;" vertex="1" connectable="0" parent="edge11">
            <mxGeometry relative="1" as="geometry"/>
          </mxCell>
        </mxCell>
        
        <!-- All categories converge to output -->
        <mxCell id="edge_underweight_output" edge="1" parent="1" source="underweight" target="output">
          <mxGeometry relative="1" as="geometry"/>
        </mxCell>
        <mxCell id="edge_normal_output" edge="1" parent="1" source="normal" target="output">
          <mxGeometry relative="1" as="geometry"/>
        </mxCell>
        <mxCell id="edge_overweight_output" edge="1" parent="1" source="overweight" target="output">
          <mxGeometry relative="1" as="geometry"/>
        </mxCell>
        <mxCell id="edge_obese_output" edge="1" parent="1" source="obese" target="output">
          <mxGeometry relative="1" as="geometry"/>
        </mxCell>
        
        <mxCell id="edge_final" edge="1" parent="1" source="output" target="end">
          <mxGeometry relative="1" as="geometry"/>
        </mxCell>
        
        <mxCell id="edge_error" edge="1" parent="1" source="error" target="end">
          <mxGeometry relative="1" as="geometry">
            <Array as="points">
              <mxPoint x="660" y="1080"/>
            </Array>
          </mxGeometry>
        </mxCell>
        
      </root>
    </mxGraphModel>
  </diagram>
</mxfile>